<svg xmlns="http://www.w3.org/2000/svg" viewBox="0 0 31 31"><path d="M1 1h7v7h-7zM11 1h2v1h-1v1h-2v-1h1zM17 1h1v1h-1zM20 1h1v1h-1zM23 1h7v7h-7zM2 2v5h5v-5zM13 2h1v2h1v-1h1v-1h1v1h1v1h1v1h-5v3h-1v-1h-1v-1h1zM19 2h1v1h1v1h-2zM21 2h1v1h-1zM24 2v5h5v-5zM3 3h3v3h-3zM9 3h1v1h2v1h-2v1h1v1h-1v2h-1zM25 3h3v3h-3zM21 4h1v1h-1zM19 5h2v1h-1v2h-1zM15 6h2v1h-1v1h1v1h-1v1h-1zM11 7h1v2h-1zM17 7h1v1h-1zM21 7h1v1h-1zM1 9h1v1h-1zM3 9h5v1h-1v1h1v1h-2v-2h-3zM10 9h1v1h-1zM12 9h1v1h-1zM17 9h1v1h-1zM21 9h1v1h-1zM23 9h5v1h-1v1h-1v2h-1v-2h-3v-1h1zM2 10h1v1h-1zM8 10h2v1h-2zM13 10h1v1h-1zM19 10h2v1h-2zM29 10h1v1h-1zM4 11h1v1h-1zM10 11h2v1h-2zM14 11h4v1h-4zM28 11h1v1h-1zM5 12h1v1h-1zM9 12h1v1h-1zM12 12h2v1h-1v2h-1v1h1v-1h2v1h-1v1h-1v1h1v1h-1v1h1v1h1v1h-1v1h1v1h-1v1h-3v-1h-1v-1h1v-1h2v-1h-2v-1h1v-2h-1v-2h-1v-1h1v-1h1zM20 12h1v1h-1zM22 12h2v1h-1v1h-1zM4 13h1v1h2v1h-4v3h1v2h-1v-1h-1v3h-1v-7h1v-1h2zM7 13h1v1h-1zM14 13h1v1h-1zM16 13h1v1h-1zM18 13h2v1h-1v1h-1v1h-2v-1h1v-1h1zM24 13h1v1h-1zM26 13h4v2h-1v-1h-3zM15 14h1v1h-1zM20 14h2v1h1v3h-1v-1h-1v-2h-1zM23 14h1v1h-1zM25 14h1v3h-2v-2h1zM7 15h1v1h-1zM19 15h1v1h-1zM28 15h1v2h1v2h-1v-1h-2v1h-1v2h2v-1h1v2h-1v1h-1v-1h-1v2h1v1h-1v1h-1v1h-1v-1h-3v-2h-1v2h-2v-1h1v-1h-1v-1h1v-1h2v-1h-1v-1h1v-2h1v1h1v1h1v1h1v-1h-1v-1h-1v-1h3v-1h2zM4 16h1v1h-1zM6 16h1v1h-1zM8 16h2v1h-1v1h-2v-1h1zM14 17h1v1h-1zM16 17h1v1h-1zM18 17h2v1h-2zM5 18h2v1h-2zM9 18h2v1h-1v1h-1zM15 18h1v1h-1zM17 18h1v2h-2v-1h1zM7 19h1v1h-1zM14 19h1v1h-1zM19 19h1v1h-1zM27 19h1v1h-1zM4 20h1v2h-1zM6 21h4v2h-1v-1h-3zM16 21h1v1h1v1h-1v1h-1v-1h-1v-1h1zM18 21h1v1h-1zM22 22v3h3v-3zM29 22h1v1h-1zM1 23h7v7h-7zM23 23h1v1h-1zM28 23h1v1h1v3h-1v2h-1v-1h-1v-1h1v-1h-1v-1h1zM2 24v5h5v-5zM9 24h1v1h1v1h3v1h-3v1h1v1h-1v1h-2v-1h1v-1h-1zM15 24h1v1h-1zM17 24h1v1h-1zM3 25h3v3h-3zM16 25h1v1h-1zM17 26h1v1h1v1h-3v-1h1zM20 26h1v2h-1zM22 27h2v1h-2zM25 27h1v1h-1zM15 28h1v1h1v1h-4v-1h2zM19 28h1v1h-1zM20 29h1v1h-1zM22 29h2v1h-2zM25 29h3v1h-3z"/></svg>