<svg xmlns="http://www.w3.org/2000/svg" viewBox="0 0 31 31"><path d="M1 1h7v7h-7zM11 1h2v1h-2zM15 1h1v1h-1zM20 1h1v1h-1zM23 1h7v7h-7zM2 2v5h5v-5zM13 2h2v1h-2zM16 2h2v1h-2zM24 2v5h5v-5zM3 3h3v3h-3zM9 3h2v2h1v-2h1v2h1v-1h1v1h1v1h-3v1h-1v-1h-1v1h-1v1h1v1h-2zM15 3h1v1h-1zM19 3h2v1h-1v1h-2v-1h1zM25 3h3v3h-3zM16 4h1v1h-1zM21 4h1v1h-1zM17 5h1v1h-1zM20 5h1v1h-1zM16 6h1v1h-1zM18 6h2v2h-1v-1h-1zM11 7h1v1h-1zM13 7h1v1h-1zM15 7h1v2h1v-2h1v2h2v1h-7v-1h2zM21 7h1v3h-1zM1 9h1v1h-1zM3 9h5v1h-2v1h-2v-1h-1zM23 9h5v1h-2v1h-1v-1h-1v1h1v1h-3v2h-1v-1h-1v1h-4v-1h3v-1h2v-1h2zM2 10h1v2h-1zM8 10h1v1h-1zM20 10h1v1h-1zM29 10h1v1h-1zM7 11h1v1h-1zM10 11h3v1h-1v1h-1v4h-1v-1h-5v-1h-2v3h-1v4h-1v-6h1v-3h1v1h1v-2h1v2h1v1h2v-1h-2v-2h1v1h2v1h1v-1h-1v-1h1zM14 11h3v1h-3zM18 11h1v1h-1zM27 11h2v1h1v1h-1v1h1v1h-2v-1h-2v-1h2v-1h-1zM1 12h1v1h-1zM25 12h1v1h-1zM13 13h2v1h-1v1h-1zM24 13h1v1h-1zM15 14h1v1h-1zM20 14h1v1h-1zM22 14h2v1h-1v1h-1zM25 14h1v1h1v1h-1v1h-1zM12 15h1v1h1v1h-2zM16 15h1v2h-1zM18 15h2v1h1v1h-2v-1h-1zM4 16h1v2h-1zM23 16h1v1h-1zM28 16h1v1h1v2h-1v-1h-3v-1h2zM7 17h2v1h2v2h-1v-1h-2v-1h-1zM14 17h2v1h-2zM17 17h1v1h-1zM21 17h2v1h-2zM24 17h1v1h-1zM5 18h2v1h-1v1h1v1h1v1h-5v-2h2zM13 18h1v2h-1zM19 18h2v1h-2zM23 18h1v1h-1zM25 18h1v1h1v1h-3v-1h1zM7 19h1v1h-1zM15 19h3v2h1v1h-3v-2h-1zM22 19h1v1h-1zM8 20h1v1h-1zM11 20h1v1h-1zM23 20h1v1h4v-1h1v2h-2v1h-1v2h2v-1h-1v-1h2v1h1v3h-1v2h-1v-1h-1v-1h1v-1h-3v1h-1v-1h-1v1h-1v-1h-1v-2h-1v-1h-1v-1h2v-1h2zM9 21h2v1h1v1h1v1h1v2h-1v-1h-1v-1h-2v-1h-1zM14 21h1v1h-1zM13 22h1v1h-1zM15 22h1v1h1v2h3v1h-4v-2h-2v-1h1zM22 22v3h3v-3zM29 22h1v1h-1zM1 23h7v7h-7zM23 23h1v1h-1zM2 24v5h5v-5zM9 24h1v1h2v1h-1v3h1v-1h1v1h1v1h-5v-1h1v-1h-1zM3 25h3v3h-3zM14 26h1v1h4v1h-6v-1h1zM21 27h1v2h-3v-1h2zM23 27h1v1h-1zM25 27h1v2h2v1h-4v-1h1zM15 29h2v1h-2zM18 29h1v1h-1z"/></svg>