<svg xmlns="http://www.w3.org/2000/svg" viewBox="0 0 31 31"><path d="M1 1h7v7h-7zM10 1h2v1h1v1h-1v1h-2v2h1v1h-1v2h-1v-6h1zM14 1h3v1h3v1h1v1h1v4h-1v-3h-1v-1h-1v-1h-2v2h1v1h-2v-1h-1v-1h1v-1h-1v1h-1zM20 1h1v1h-1zM23 1h7v7h-7zM2 2v5h5v-5zM24 2v5h5v-5zM3 3h3v3h-3zM25 3h3v3h-3zM12 4h1v1h1v1h-1v1h-1v-1h-1v-1h1zM18 4h1v1h-1zM18 6h1v1h-1zM11 7h1v1h-1zM13 7h1v1h-1zM15 7h1v2h-1zM17 7h1v2h-1zM19 7h1v1h-1zM1 9h1v5h-1zM3 9h5v1h-1v1h-1v-1h-2v2h1v-1h1v2h-1v3h1v2h1v1h1v1h-1v1h-1v-1h-1v-2h-1v1h-1v-1h-1v4h-1v-7h1v1h1v-1h-1v-1h2v-1h-1zM18 9h1v1h-1zM20 9h2v1h1v-1h5v1h-2v1h-3v1h-2v-2h-1zM8 10h1v1h-1zM10 10h1v1h-1zM14 10h3v1h3v1h1v1h-2v-1h-1v1h-1v1h1v3h-1v1h1v-1h3v1h-2v1h-1v1h-1v1h-1v-1h-1v1h-1v-1h-2v-1h-1v-1h1v-1h1v2h1v-1h2v-1h-1v-1h1v-2h-1v-1h1v-1h-1v1h-2v2h-1v1h-1v-1h-1v-1h2v-1h-1v-2h1v1h1v-1h1zM29 10h1v1h-1zM7 11h1v1h-1zM27 11h2v2h-1v-1h-1zM9 12h1v1h-1zM23 12h4v1h-1v2h-2v-1h1v-1h-2zM6 13h3v1h-2v1h1v1h-2zM21 13h1v2h-2v-1h1zM27 13h1v1h1v1h-1v1h-1v1h-2v1h-1v-2h2v-1h1zM29 13h1v1h-1zM13 15h1v2h-1zM19 15h1v1h-1zM8 16h3v1h-2v2h-1v-1h-1v-1h1zM21 16h1v1h-1zM27 17h1v2h-1v2h-1v-1h-1v-2h2zM21 18h2v1h-1v1h-1zM29 18h1v1h-1zM19 19h1v1h-1zM28 19h1v1h-1zM4 20h1v1h-1zM11 20h1v2h-2v1h-1v-2h2zM20 20h1v1h-1zM23 20h1v1h2v1h1v1h-1v1h1v1h1v-2h1v1h1v1h-1v1h1v1h-1v2h-1v-3h-1v1h-1v-1h-5v-1h-2v-1h1v-1h1v-2h2zM3 21h1v1h-1zM7 21h1v1h-1zM15 21h1v1h-1zM17 21h3v1h-2v1h-1zM27 21h2v1h-2zM12 22h2v2h-1v1h1v1h-2v-1h-2v1h1v1h-1v1h-1v-4h1v-1h1v1h1zM22 22v3h3v-3zM29 22h1v1h-1zM1 23h7v7h-7zM16 23h1v1h-1zM18 23h1v1h-1zM23 23h1v1h-1zM2 24v5h5v-5zM15 24h1v1h-1zM17 24h1v3h3v3h-1v-2h-3v1h-2v1h-4v-1h1v-1h1v-1h2v1h1v-1h1v-1h-1v-1h1zM3 25h3v3h-3zM15 26h1v1h-1zM11 27h1v1h-1zM24 27h2v1h1v2h-2v-1h-1zM10 28h1v1h-1zM9 29h1v1h-1zM18 29h1v1h-1zM22 29h2v1h-2z"/></svg>