<svg class="lds-spinner" width="200" height="200" xmlns="http://www.w3.org/2000/svg" viewBox="0 0 100 100" preserveAspectRatio="xMidYMid" style="background:0 0"><rect x="46" y="37" rx="2.76" ry="2.22" width="8" height="2" fill="#fff"><animate attributeName="opacity" values="1;0" dur="0.6s" begin="-0.525s" repeatCount="indefinite"/></rect><rect x="46" y="37" rx="2.76" ry="2.22" width="8" height="2" fill="#fff" transform="rotate(45 50 50)"><animate attributeName="opacity" values="1;0" dur="0.6s" begin="-0.44999999999999996s" repeatCount="indefinite"/></rect><rect x="46" y="37" rx="2.76" ry="2.22" width="8" height="2" fill="#fff" transform="rotate(90 50 50)"><animate attributeName="opacity" values="1;0" dur="0.6s" begin="-0.375s" repeatCount="indefinite"/></rect><rect x="46" y="37" rx="2.76" ry="2.22" width="8" height="2" fill="#fff" transform="rotate(135 50 50)"><animate attributeName="opacity" values="1;0" dur="0.6s" begin="-0.3s" repeatCount="indefinite"/></rect><rect x="46" y="37" rx="2.76" ry="2.22" width="8" height="2" fill="#fff" transform="rotate(180 50 50)"><animate attributeName="opacity" values="1;0" dur="0.6s" begin="-0.22499999999999998s" repeatCount="indefinite"/></rect><rect x="46" y="37" rx="2.76" ry="2.22" width="8" height="2" fill="#fff" transform="rotate(225 50 50)"><animate attributeName="opacity" values="1;0" dur="0.6s" begin="-0.15s" repeatCount="indefinite"/></rect><rect x="46" y="37" rx="2.76" ry="2.22" width="8" height="2" fill="#fff" transform="rotate(270 50 50)"><animate attributeName="opacity" values="1;0" dur="0.6s" begin="-0.075s" repeatCount="indefinite"/></rect><rect x="46" y="37" rx="2.76" ry="2.22" width="8" height="2" fill="#fff" transform="rotate(315 50 50)"><animate attributeName="opacity" values="1;0" dur="0.6s" begin="0s" repeatCount="indefinite"/></rect></svg>