<svg xmlns="http://www.w3.org/2000/svg" viewBox="0 0 31 31"><path d="M1 1h7v7h-7zM10 1h1v1h-1zM12 1h2v2h-1v-1h-1zM15 1h1v1h-1zM18 1h1v1h-1zM20 1h1v1h-1zM23 1h7v7h-7zM2 2v5h5v-5zM16 2h1v1h-1zM19 2h1v1h2v2h-1v-1h-2zM24 2v5h5v-5zM3 3h3v3h-3zM9 3h3v3h3v-1h1v1h1v1h-1v1h-1v-1h-1v1h-1v-1h-1v3h-2v-1h1v-2h-1v2h-1zM15 3h1v1h-1zM25 3h3v3h-3zM10 4v2h1v-2zM13 4h2v1h-2zM16 4h1v1h-1zM17 5h1v1h-1zM19 5h2v1h-2zM17 7h1v1h-1zM19 7h1v1h-1zM21 7h1v1h-1zM1 9h1v1h1v1h-1v1h-1zM3 9h5v1h-3v2h-1v-2h-1zM13 9h2v1h-2zM16 9h3v1h-3zM20 9h2v1h-1v1h-2v-1h1zM23 9h5v1h-1v1h-2v-1h-1v1h-1zM8 10h2v1h-2zM15 10h1v1h-1zM29 10h1v1h-1zM7 11h1v1h-1zM10 11h1v1h-1zM13 11h1v2h1v1h-1v1h-2v-1h-1v-2h2zM16 11h3v1h-2v1h2v1h-3v-1h-1v-1h1zM21 11h2v1h-2zM24 11h1v1h-1zM28 11h1v1h-1zM2 12h2v3h-1v-1h-1zM8 12h1v1h1v1h-3v-1h1zM19 12h2v1h-2zM23 12h1v1h-1zM25 12h1v1h-1zM21 13h1v1h-1zM26 13h2v1h-1v1h-1v1h1v1h-1v2h-2v1h-1v1h1v-1h2v1h2v-1h1v2h-3v1h1v1h-1v1h2v-2h1v1h1v3h-1v2h-1v-3h-2v1h1v1h-1v1h2v1h-3v-1h-1v-2h1v-1h-4v-1h-1v-1h1v-3h1v-1h-1v-1h2v-1h2v-1h-2v1h-2v-1h1v-3h4zM1 14h1v2h1v1h-1v1h1v1h-1v3h-1zM6 14h1v1h-1zM10 14h1v1h-1zM15 14h1v1h-1zM19 14h2v1h-1v1h-1zM28 14h1v1h-1zM5 15h1v2h5v-2h1v4h-1v-1h-4v1h-1v1h-1v2h-1v-4h1zM7 15h2v1h-2zM16 15h2v1h-1v2h1v1h-1v1h1v1h1v-1h-1v-1h1v-1h2v1h-1v1h1v1h-1v1h-6v-1h2v-2h-1v-1h1v-1h-1v-1h1zM23 15v1h2v-1zM20 16h1v1h-1zM28 16h1v1h1v2h-1v-1h-2v-1h1zM3 17h1v1h-1zM13 17h2v1h-2zM7 19h3v2h-1v-1h-2zM14 19h1v1h-1zM26 19h2v1h-2zM11 20h2v1h-1v1h-1v1h-2v-1h1v-1h1zM6 21h2v1h-2zM12 22h2v1h-1v2h1v1h-1v1h1v-1h1v3h-1v-1h-1v1h1v1h-2v-1h-1v1h-2v-1h1v-1h1v-1h-1v1h-1v-4h3zM22 22v3h3v-3zM29 22h1v1h-1zM1 23h7v7h-7zM14 23h3v2h2v1h-3v-2h-2zM18 23h2v1h-2zM23 23h1v1h-1zM2 24v5h5v-5zM3 25h3v3h-3zM10 25v1h1v-1zM19 26h2v2h1v1h-2v1h-3v-1h2v-1h-1v-1h1zM16 27h1v2h-1zM22 27h1v1h-1zM22 29h2v1h-2z"/></svg>