<svg xmlns="http://www.w3.org/2000/svg" viewBox="0 0 31 31"><path d="M1 1h7v7h-7zM10 1h4v1h-2v1h2v-1h2v1h-1v1h-1v4h-1v-2h-1v2h-1v-1h-1v-1h1v-3h-1v2h-1v-3h1zM16 1h2v2h-1v-1h-1zM20 1h1v1h-1zM23 1h7v7h-7zM2 2v5h5v-5zM19 2h1v2h-1zM21 2h1v1h-1zM24 2v5h5v-5zM3 3h3v3h-3zM16 3h1v1h-1zM25 3h3v3h-3zM12 4v1h1v-1zM17 4h1v1h2v1h-3v1h-1v-2h1zM20 4h1v1h-1zM21 5h1v3h-1zM9 7h1v2h3v1h2v1h2v2h-1v-1h-1v2h-1v-1h-1v-1h-1v2h-1v2h2v1h-1v1h-1v-1h-1v-4h-2v-1h-1v-1h2v1h2v-1h1v-1h-1v1h-2zM15 7h1v1h1v-1h1v2h-3zM19 7h1v1h-1zM1 9h1v1h4v3h-1v1h-2v-1h-1v-2h-1zM7 9h1v1h-1zM22 9h2v1h-2zM26 9h3v1h-1v2h-1v-2h-1zM17 10h1v1h-1zM20 10h1v1h-1zM24 10h2v1h-1v1h2v2h1v4h-1v-1h-1v-1h1v-1h-3v1h-1v-4h1zM3 11v1h2v-1zM18 11h2v1h-2zM21 11h1v1h-1zM6 13h2v1h-1v1h-1zM18 13h1v1h2v-1h1v3h-1v-1h-1v2h-1v-1h-1v2h-1v-2h-1v-2h2zM25 13v1h1v-1zM28 13h1v1h-1zM2 14h1v1h-1zM8 14h1v3h1v2h-1v-1h-2v-1h1v-1h-1v-1h1zM13 14h1v1h-1zM29 14h1v1h-1zM1 15h1v2h-1zM5 15h1v1h1v1h-2v2h-1v-1h-1v1h1v1h1v1h-1v1h-1v-2h-1v2h-1v-4h1v-1h1v-1h2zM20 17h1v1h-1zM25 17h1v1h1v1h1v1h-1v1h-1v-2h-1v2h1v1h2v-2h1v4h-2v-1h-1v3h-3v1h-1v-1h-1v1h-1v-2h-1v-2h1v1h1v-1h-1v-1h1v-1h3v-3h1zM6 18h1v1h1v1h-1v1h1v1h-3v-1h1v-1h-1v-1h1zM12 18h1v1h-1zM14 18h3v1h1v1h-2v-1h-2zM18 18h2v1h1v-1h1v2h-3v-1h-1zM10 19h1v1h-1zM13 19h1v1h-1zM29 19h1v1h-1zM9 20h1v1h-1zM12 20h1v1h-1zM14 20h1v1h-1zM15 21h1v2h-1zM17 21h2v1h-2zM9 22h1v1h-1zM11 22h3v3h-1v1h1v-1h1v-1h1v2h1v-1h1v2h1v1h-2v1h2v-1h1v1h1v1h-5v-2h-1v-1h-2v1h-1v-1h-1v-1h1v-2h1v-1h-1v1h-1zM22 22v3h3v-3zM1 23h7v7h-7zM16 23h1v1h-1zM23 23h1v1h-1zM2 24v5h5v-5zM10 24h1v2h-1zM29 24h1v3h-1v-1h-1v-1h1zM3 25h3v3h-3zM26 26h1v1h2v1h-1v2h-1v-1h-1v-1h-1v1h-1v1h-2v-1h1v-2h3zM10 27h1v2h-1zM21 27h1v1h-1zM14 28h1v2h-1zM29 28h1v1h-1zM9 29h1v1h-1z"/></svg>