<svg xmlns="http://www.w3.org/2000/svg" viewBox="0 0 31 31"><path d="M1 1h7v7h-7zM11 1h1v1h1v1h1v1h-1v1h-2v1h1v3h3v1h-2v1h2v-1h1v1h1v2h2v-1h-1v-1h2v2h2v-1h-1v-1h-1v-1h2v1h1v3h-2v1h-1v-1h-1v1h-1v-1h-2v-2h-4v-1h-2v-2h-1v-6h1v-1h1zM15 1h1v1h-1zM19 1h1v2h-2v1h2v1h-4v-1h-1v-1h1v-1h3zM21 1h1v2h-1zM23 1h7v7h-7zM2 2v5h5v-5zM24 2v5h5v-5zM3 3h3v3h-3zM25 3h3v3h-3zM14 4h1v1h1v1h-2zM20 5h2v1h-2zM13 6h1v2h-1zM16 6h1v1h-1zM10 7v1h1v-1zM15 7h1v1h-1zM17 7h1v2h1v-2h1v3h-4v-2h1zM21 7h1v2h-1zM1 9h1v1h-1zM3 9h5v1h-1v1h1v-1h1v1h1v1h-1v1h-1v-1h-2v-2h-1v3h-1v-2h-2v-1h1zM23 9h5v1h-2v1h-1v-1h-1v1h-1zM29 10h1v1h-1zM26 11h1v1h-1zM28 11h1v1h-1zM1 12h2v1h-2zM10 12h2v1h3v1h-1v2h-1v-1h-1v1h-3v-1h-1v-1h3v-1h-1zM24 12h2v1h-1v1h-1zM3 13h1v1h-1zM5 13h1v1h1v1h-2zM7 13h1v1h-1zM26 13h2v1h-1v1h-1v2h-1v1h-1v-1h-1v-1h1v-1h1v-1h1zM15 14h1v1h-1zM23 14h1v1h-1zM29 14h1v1h-1zM2 15h1v1h-1zM4 15h1v1h-1zM7 15h1v1h-1zM16 15h2v3h-3v-2h1v1h1v-1h-1zM19 15h1v1h2v1h-3zM27 15h2v2h1v2h-1v-1h-2v1h-1v1h1v1h-1v2h1v2h-1v3h-3v-1h2v-1h-2v1h-1v-1h-1v-2h-1v-2h-4v-1h3v-1h1v1h3v-1h1v1h1v-1h-1v-1h1v-1h1v-1h2v-1h-1zM6 16h1v1h1v1h-1v1h-1zM12 16h1v2h-1v3h1v1h1v1h-1v1h1v1h-2v1h1v3h-1v-1h-3v-4h1v-1h1v1h1v-2h-1v-3h-1v-1h-1v-1h3zM2 17h1v1h-1zM1 18h1v4h-1zM4 18h1v1h-1zM13 18h1v1h1v1h-1v1h-1zM19 18h5v1h-1v1h-1v-1h-3zM5 19h1v1h-1zM7 19h1v1h-1zM16 19h2v1h-2zM4 20h1v1h-1zM6 20h1v1h1v-1h1v1h1v2h-1v-1h-3zM28 20h1v2h-1zM3 21h1v1h-1zM14 21h1v1h-1zM15 22h1v1h2v1h-1v1h-1v-1h-2v-1h1zM22 22v3h3v-3zM29 22h1v1h-1zM1 23h7v7h-7zM23 23h1v1h-1zM28 23h1v1h1v3h-1v2h-1v-1h-1v-1h1zM2 24v5h5v-5zM3 25h3v3h-3zM17 25h3v1h-3zM10 26v1h1v-1zM14 27h4v2h-1v1h-2v-1h1v-1h-1v1h-1zM19 27h1v1h-1zM21 27h1v1h1v1h-3v-1h1zM26 28h1v1h-1zM9 29h1v1h-1zM11 29h1v1h-1zM13 29h1v1h-1zM18 29h1v1h-1zM23 29h3v1h-3zM27 29h1v1h-1z"/></svg>