<svg xmlns="http://www.w3.org/2000/svg" viewBox="0 0 31 31"><path d="M1 1h7v7h-7zM10 1h1v3h1v-1h2v1h2v-1h-2v-1h3v-1h1v3h-1v1h-4v2h-1v-2h-1v1h-1v3h-1v-6h1zM20 1h1v1h-1zM23 1h7v7h-7zM2 2v5h5v-5zM19 2h1v1h1v-1h1v3h-1v-1h-1v1h-2v-1h1zM24 2v5h5v-5zM3 3h3v3h-3zM25 3h3v3h-3zM17 5h1v1h-1zM20 5h1v1h-1zM16 6h1v1h-1zM21 6h1v3h-1zM11 7h1v1h-1zM13 7h1v2h1v1h-1v1h-1v1h-1v-1h-1v-2h1v1h1v-1h-1v-1h1zM15 7h1v1h1v1h2v1h-3v-1h-1zM17 7h1v1h-1zM19 7h1v2h-1zM1 9h1v1h-1zM3 9h5v1h-1v1h-3v-1h-1zM23 9h5v1h-2v1h-6v1h1v1h-2v-1h-2v2h-1v-1h-1v-3h1v1h3v-1h4zM2 10h1v1h-1zM8 10h2v1h1v1h-4v-1h1zM29 10h1v1h-1zM1 11h1v2h2v1h1v-1h-1v-1h2v1h3v1h-2v1h-2v1h-1v-1h-1v-1h-2zM28 11h1v1h-1zM11 12h1v1h-1zM22 12h1v2h-2v-1h1zM24 12h3v1h-1v1h1v1h-1v2h-1v1h-1v-1h-1v1h-2v-1h1v-1h2v-1h-1v-1h2v-1h-1zM13 13h2v1h-1v1h1v-1h1v1h1v2h2v-1h1v2h-4v-2h-2v1h-1v-1h-2v1h-1v-3h2v1h1zM27 13h2v1h-2zM17 14h1v1h-1zM19 14h2v1h-2zM29 14h1v1h-1zM2 15h1v1h1v1h-1v1h-1v-1h-1v-1h1zM7 15h1v1h-1zM18 15h1v1h-1zM28 15h1v2h1v2h-1v-1h-2v2h-1v1h2v-1h1v2h-1v1h-1v-1h-1v1h1v2h-1v1h-1v1h-1v-1h-3v-2h-1v2h-2v-1h1v-2h1v-1h1v-1h1v-1h1v1h2v-3h1v-1h2zM5 16h1v1h2v1h-2v1h2v1h-2v2h-2v-1h1v-1h-1v-1h1zM12 17h1v1h1v1h-2zM14 17h1v1h-1zM1 18h1v4h-1zM3 18h1v1h-1zM8 18h1v1h-1zM10 18h1v1h-1zM15 18h1v1h2v1h-1v1h3v1h-1v1h-1v-1h-2v-1h-1zM20 18h1v1h-1zM23 18h1v1h-1zM9 19h1v1h1v1h-3v-1h1zM21 19h1v1h-1zM3 20h1v1h-1zM20 20h1v1h-1zM7 21h1v1h-1zM14 21h1v1h-1zM9 22h2v1h-2zM13 22h1v3h-1zM15 22h1v1h1v1h-2zM22 22v3h3v-3zM29 22h1v1h-1zM1 23h7v7h-7zM11 23h1v1h-1zM23 23h1v1h-1zM28 23h1v1h1v3h-1v2h-1zM2 24v5h5v-5zM9 24h1v2h1v-1h2v2h-1v1h-1v-1h-1v1h-1zM3 25h3v3h-3zM16 25h1v1h1v1h-1v1h-2v1h-2v1h-1v-2h2v-1h2zM26 26h1v3h-1v-1h-1v-1h1zM18 27h1v1h-1zM22 27h2v1h-1v1h-3v1h-5v-1h2v-1h1v1h1v-1h3zM9 29h1v1h-1zM23 29h3v1h-3z"/></svg>