<svg xmlns="http://www.w3.org/2000/svg" viewBox="0 0 31 31"><path d="M1 1h7v7h-7zM10 1h1v1h-1zM12 1h2v1h-1v1h-1zM16 1h2v2h-1v-1h-1zM19 1h1v3h-1zM23 1h7v7h-7zM2 2v5h5v-5zM9 2h1v2h1v2h1v-1h2v5h1v1h2v3h-1v-2h-1v2h-2v-1h1v-2h-1v-1h-1v-1h1v-2h-1v1h-1v-1h-1v-2h-1zM14 2h2v1h-1v1h-2v-1h1zM21 2h1v4h-2v-1h1zM24 2v5h5v-5zM3 3h3v3h-3zM11 3h1v1h-1zM16 3h1v1h-1zM25 3h3v3h-3zM17 4h2v1h-1v1h-1v1h-1v-2h1zM19 6h1v2h-1zM9 7h1v2h1v1h-1v1h-1v1h-2v1h-2v1h2v1h1v1h-2v1h-1v1h-1v-4h-1v-1h1v-1h-1v1h-1v-3h2v1h1v-1h2v1h1v-1h1zM15 7h1v1h1v-1h1v2h-3zM21 7h1v2h2v1h2v-1h3v3h1v2h-1v-1h-1v-2h-3v1h2v1h-1v3h-1v-1h-3v2h-1v1h-1v-1h-1v-1h2v-3h1v1h1v-2h1v-1h-1v1h-1v-2h-1v-1h-1v-1h1zM1 9h1v1h-1zM7 9h1v1h-1zM18 9h1v1h2v1h-1v1h-1v-1h-2v-1h1zM11 10h1v1h1v2h-1v-1h-1v1h-1v1h-1v-2h1v-1h1zM1 13h1v1h1v1h-1v1h1v4h-1v2h-1v-4h1v-1h-1zM7 13h1v1h-1zM11 13h1v1h1v2h-2v-1h-1v-1h1zM18 13h1v1h1v1h-2v1h-1v1h1v1h2v1h1v1h-1v2h-2v-1h1v-2h-2v1h-1v-1h-2v-1h2v-3h1v-1h1zM24 13v1h1v-1zM27 13h1v1h1v1h-1v2h-2v-1h1zM8 14h1v1h-1zM9 15h1v1h1v2h-1v-1h-1v2h2v1h-1v2h1v-2h2v-1h1v1h1v1h-3v1h2v2h-1v1h2v-1h1v1h1v1h1v-1h1v2h-2v1h-1v-1h-1v-1h-3v3h-1v-2h-1v-4h-1v-1h-5v-1h5v-1h-2v-1h1v-1h-1v1h-1v-2h2v-1h1zM23 16h1v1h-1zM29 16h1v1h-1zM12 17h2v1h-1v1h-1zM24 17h1v1h1v1h1v2h1v-1h1v4h-3v2h-1v1h1v1h-2v1h-1v-2h1v-1h-2v1h-2v-3h1v-4h1v1h1v-1h-1v-1h-1v-1h2v1h1v2h1v-2h-1zM29 19h1v1h-1zM3 20h1v1h-1zM17 20h1v1h-1zM15 21h2v1h-1v1h-1zM22 22v3h3v-3zM1 23h7v7h-7zM16 23h3v1h-1v1h-1v-1h-1zM23 23h1v1h-1zM2 24v5h5v-5zM11 24v1h1v-1zM29 24h1v3h-1v-1h-1v-1h1zM3 25h3v3h-3zM27 26h1v1h-1zM13 27h2v3h-2zM19 27h1v1h1v1h-1v1h-4v-1h3zM28 27h1v1h-1zM26 28h2v2h-1v-1h-1zM29 28h1v1h-1zM9 29h2v1h-2zM24 29h1v1h-1z"/></svg>